<svg xmlns="http://www.w3.org/2000/svg" width="32" height="32" viewBox="0 0 32 32">
  <path d="M16 2C8 2 2 8 2 16c0 4.5 2 8.5 5.5 11.5C10 30 13 31 16 31c8 0 14-6 14-14 0-8-6-14-14-14z" fill="#2d5016"/>
  <path d="M16 3c7.2 0 13 5.8 13 13s-5.8 13-13 13c-2.8 0-5.4-0.9-7.5-2.4C5.4 23.8 3 20.1 3 16c0-7.2 5.8-13 13-13z" fill="#4a7c59"/>
  <path d="M16 4c6.6 0 12 5.4 12 12s-5.4 12-12 12c-2.5 0-4.8-0.8-6.7-2.1C6.6 23.3 4 19.9 4 16c0-6.6 5.4-12 12-12z" fill="#5d9c5a"/>
  <path d="M16 5c6 0 11 5 11 11s-5 11-11 11c-2.2 0-4.3-0.7-6-1.9C7.8 22.7 5 19.5 5 16c0-6 5-11 11-11z" fill="#7eb069"/>
  <path d="M10 12c2-2 4-3 6-3s4 1 6 3c0 3-1 6-3 8s-3 3-6 3-4-1-6-3-3-5-3-8z" fill="#9ecf7a"/>
  <path d="M16 10c0.5 0 1 0.2 1.4 0.6L20 13.2c0.4 0.4 0.6 0.9 0.6 1.4v4.8c0 0.5-0.2 1-0.6 1.4l-2.6 2.6c-0.4 0.4-0.9 0.6-1.4 0.6s-1-0.2-1.4-0.6l-2.6-2.6c-0.4-0.4-0.6-0.9-0.6-1.4v-4.8c0-0.5 0.2-1 0.6-1.4l2.6-2.6c0.4-0.4 0.9-0.6 1.4-0.6z" fill="#b5d687"/>
  <path d="M16 7c1 0 2 0.5 2.5 1.5l4 7c0.5 1 0 2.5-1 3L18 20c-0.5 0.3-1.2 0.3-1.7 0L16 19l-0.3 1c-0.5 0.3-1.2 0.3-1.7 0l-3.5-1.5c-1-0.5-1.5-2-1-3l4-7c0.5-1 1.5-1.5 2.5-1.5z" fill="#c4e89a"/>
</svg>